<svg id="circle" class="scaler" xmlns="http://www.w3.org/2000/svg" width="3600" height="3600" viewBox="0 0 3600 3600" version="1.1"><path d="" stroke="none" fill="#101c24" fill-rule="evenodd"/><path d="M 1865.557 45.250 C 1865.057 47.586, 1854.173 146.843, 1853.744 152.982 L 1853.500 156.464 1886.640 160.112 C 1904.866 162.118, 1920.182 163.926, 1920.674 164.130 C 1921.166 164.333, 1913.542 237.339, 1903.732 326.364 C 1893.921 415.389, 1886.057 488.390, 1886.254 488.588 C 1886.452 488.785, 1894.688 489.637, 1904.557 490.480 C 1926.493 492.353, 1961.978 496.350, 1979.500 498.919 C 1986.650 499.968, 1992.655 500.673, 1992.844 500.486 C 1993.033 500.299, 2000.370 435.200, 2009.148 355.823 C 2020.187 255.991, 2024.983 209.269, 2024.705 204.261 C 2023.972 191.095, 2016.698 183.418, 2003.853 182.253 L 1997.792 181.703 1998.442 177.639 C 1998.799 175.404, 1999.315 173.351, 1999.589 173.078 C 1999.862 172.804, 2021.706 174.960, 2048.131 177.869 C 2074.555 180.778, 2096.459 182.874, 2096.805 182.528 C 2097.584 181.749, 2109.961 70.682, 2109.341 70.031 C 2108.973 69.644, 1871.182 43.119, 1867.269 43.029 C 1866.592 43.013, 1865.821 44.013, 1865.557 45.250 M 1644.199 51.458 C 1602.234 53.829, 1567.690 55.977, 1567.435 56.231 C 1566.961 56.706, 1590.895 501.228, 1591.423 501.756 C 1591.584 501.917, 1601.117 500.702, 1612.608 499.056 C 1637.578 495.479, 1662.945 492.567, 1683.750 490.888 C 1698.835 489.671, 1699 489.632, 1699 487.260 C 1699 485.941, 1697.196 451.781, 1694.992 411.349 C 1692.787 370.917, 1691.239 337.423, 1691.551 336.918 C 1691.863 336.413, 1693.554 336.004, 1695.309 336.009 L 1698.500 336.018 1723.793 411.265 L 1749.085 486.511 1784.793 486.208 C 1804.432 486.041, 1829.500 486.286, 1840.500 486.751 C 1851.500 487.217, 1860.676 487.475, 1860.890 487.325 C 1861.264 487.064, 1814.128 325.861, 1813.475 325.163 C 1813.301 324.977, 1804.461 327.495, 1793.830 330.757 C 1774.979 336.542, 1774.484 336.637, 1773.850 334.594 C 1773.492 333.442, 1773.155 331.991, 1773.100 331.368 C 1773.045 330.745, 1776.938 329.012, 1781.750 327.516 C 1817.278 316.474, 1832.603 296.026, 1841.183 248.213 C 1843.218 236.869, 1843.462 232.376, 1843.440 206.500 C 1843.422 184.495, 1842.996 174.485, 1841.675 165 C 1837.529 135.244, 1831.161 112.231, 1821.614 92.500 C 1812.230 73.109, 1803.569 63.838, 1787.500 55.989 C 1766.449 45.705, 1753.347 45.291, 1644.199 51.458 M 1437.101 83.061 C 1408.832 89.058, 1385.494 94.173, 1385.240 94.427 C 1384.852 94.815, 1474.841 524.996, 1475.470 525.758 C 1475.587 525.900, 1483.967 524.019, 1494.091 521.578 C 1515.670 516.376, 1539.759 511.300, 1563.495 506.955 C 1572.842 505.244, 1580.636 503.697, 1580.816 503.518 C 1581.578 502.756, 1490.408 72.010, 1489.500 72.080 C 1488.950 72.123, 1465.370 77.064, 1437.101 83.061 M 2096.609 294.629 C 2046.191 407.580, 2004.707 500.600, 2004.424 501.339 C 2004.031 502.362, 2007.191 503.219, 2017.704 504.940 C 2035.847 507.909, 2070.106 514.789, 2092.212 519.903 C 2101.953 522.156, 2110.584 524, 2111.391 524 C 2112.926 524, 2113.749 522.010, 2133.535 470.500 C 2139.450 455.100, 2144.649 442.098, 2145.089 441.606 C 2145.751 440.865, 2196.630 454.297, 2197.874 455.541 C 2198.083 455.750, 2194.804 475.585, 2190.587 499.621 C 2186.371 523.656, 2183.276 543.635, 2183.711 544.020 C 2184.145 544.404, 2194.175 547.880, 2206 551.744 C 2230.233 559.663, 2245.867 565.237, 2270.328 574.680 C 2279.584 578.253, 2287.267 581.024, 2287.403 580.838 C 2287.689 580.444, 2341.040 138.900, 2341.315 134.646 L 2341.500 131.793 2270 111.887 C 2230.675 100.939, 2196.200 91.370, 2193.389 90.622 L 2188.279 89.263 2096.609 294.629 M 1244.623 135.527 C 1181.441 156.643, 1129.587 174.079, 1129.392 174.274 C 1128.916 174.751, 1164.038 280.266, 1165.038 281.362 C 1165.471 281.837, 1180.292 277.402, 1197.975 271.508 C 1215.658 265.614, 1230.275 260.951, 1230.459 261.146 C 1230.643 261.341, 1253.815 330.913, 1281.954 415.750 C 1314.165 512.864, 1333.586 570, 1334.385 570 C 1335.083 570, 1341.030 568.023, 1347.599 565.607 C 1368.489 557.925, 1391.683 550.148, 1413.916 543.372 C 1425.787 539.754, 1435.604 536.699, 1435.730 536.584 C 1436.246 536.112, 1343.156 258.194, 1341.245 254.500 C 1337.185 246.652, 1328.997 241, 1321.689 241 C 1319.832 241, 1315.798 241.865, 1312.724 242.923 L 1307.135 244.846 1305.648 240.479 L 1304.160 236.113 1351.117 220.461 C 1390.521 207.327, 1397.989 204.543, 1397.544 203.154 C 1384.436 162.225, 1362.022 97.460, 1360.916 97.317 C 1360.137 97.217, 1307.806 114.411, 1244.623 135.527 M 1695.074 136.155 C 1687.140 136.630, 1680.420 137.247, 1680.141 137.526 C 1679.561 138.105, 1685.940 258.273, 1686.585 258.918 C 1686.816 259.150, 1695.779 258.883, 1706.502 258.326 C 1729.111 257.150, 1728.922 257.231, 1731.970 247.362 C 1735.310 236.549, 1736.273 225.119, 1735.745 202.562 C 1735.369 186.494, 1734.734 178.892, 1733.067 170.500 C 1729.308 151.577, 1726.028 141.974, 1721.709 137.250 C 1719.391 134.715, 1719.243 134.709, 1695.074 136.155 M 2446.197 227.600 C 2432.339 255.323, 2421 278.348, 2421 278.766 C 2421 279.184, 2434.500 286.265, 2451 294.500 C 2467.500 302.735, 2481 309.817, 2481 310.238 C 2481 310.659, 2448.345 376.312, 2408.433 456.134 C 2368.521 535.957, 2336.233 601.612, 2336.683 602.035 C 2337.132 602.458, 2342.675 605.154, 2349 608.026 C 2363.865 614.776, 2405.137 635.411, 2420.343 643.695 C 2426.857 647.244, 2432.320 650.002, 2432.484 649.824 C 2432.647 649.646, 2462.593 589.875, 2499.031 517 C 2563.032 388.996, 2565.296 384.276, 2565.764 377.891 C 2566.035 374.192, 2565.744 369.753, 2565.102 367.808 C 2563.611 363.290, 2558.802 358.440, 2552.797 355.397 C 2550.159 354.060, 2548 352.727, 2548 352.433 C 2548 351.930, 2550.953 345.851, 2551.518 345.193 C 2551.662 345.024, 2571.629 354.812, 2595.888 366.944 L 2639.995 389.002 2665.499 338.002 L 2691.002 287.003 2581.198 232.099 L 2471.393 177.195 2446.197 227.600 M 2238.141 198.713 C 2236.356 205.196, 2232.863 215.450, 2230.379 221.500 C 2226.418 231.148, 2185 347.483, 2185 348.962 C 2185 349.887, 2211.445 356.935, 2212.111 356.187 C 2212.955 355.237, 2237.313 237.406, 2239.850 222 C 2240.982 215.125, 2243.266 204.800, 2244.925 199.055 C 2246.585 193.310, 2247.843 188.525, 2247.721 188.422 C 2247.600 188.318, 2246.124 187.939, 2244.443 187.580 L 2241.387 186.926 2238.141 198.713 M 935 272.654 C 897.325 293.899, 866.402 311.353, 866.283 311.441 C 866.067 311.600, 1027.035 734.201, 1027.548 734.825 C 1027.695 735.003, 1034.576 730.393, 1042.838 724.581 C 1060.879 711.890, 1087.451 694.426, 1106.232 682.916 C 1113.785 678.287, 1119.973 674.179, 1119.982 673.787 C 1119.992 673.395, 1111.844 654.588, 1101.876 631.994 C 1091.908 609.400, 1083.921 590.775, 1084.126 590.604 C 1084.332 590.434, 1095.072 584.352, 1107.994 577.090 C 1131.120 564.092, 1131.514 563.917, 1133.131 565.914 C 1134.035 567.030, 1145.699 583.593, 1159.051 602.721 C 1172.404 621.850, 1183.426 637.633, 1183.544 637.797 C 1183.663 637.960, 1197.876 631.135, 1215.130 622.631 C 1232.383 614.126, 1254.820 603.498, 1264.990 599.011 C 1275.159 594.524, 1283.630 590.704, 1283.813 590.521 C 1284.410 589.923, 1005.978 234.507, 1004.722 234.264 C 1004.050 234.134, 972.675 251.409, 935 272.654 M 2589.448 485.220 C 2523.476 586.464, 2469.394 669.794, 2469.264 670.400 C 2469.134 671.005, 2474.727 674.875, 2481.692 679 C 2494.627 686.660, 2538.723 715.492, 2551.694 724.769 L 2558.888 729.915 2566.235 718.707 C 2609.599 652.561, 2799.207 360.929, 2799.250 360.313 C 2799.294 359.682, 2717.733 305.834, 2710.948 302.015 C 2709.685 301.304, 2686.992 335.523, 2589.448 485.220 M 974.944 341.844 L 972.666 343.689 976.224 349.594 C 981.112 357.709, 987.493 370.632, 991.419 380.365 C 994.805 388.761, 1045.714 495.856, 1047.018 497.325 C 1047.554 497.929, 1069.228 486.678, 1071.849 484.434 C 1072.338 484.016, 1005.421 381.399, 1001.465 376.500 C 996.489 370.338, 986.176 354.257, 982.384 346.750 C 980.509 343.038, 978.580 340, 978.098 340 C 977.616 340, 976.197 340.830, 974.944 341.844 M 701 430.639 C 648.475 472.737, 605.379 507.298, 605.231 507.442 C 604.815 507.848, 675.050 595.455, 676.097 595.837 C 676.605 596.022, 688.959 586.627, 703.550 574.960 C 718.141 563.292, 730.211 553.916, 730.372 554.123 C 733.956 558.745, 932.620 806.896, 933.456 807.794 C 934.422 808.833, 937.411 806.755, 948.630 797.244 C 966.346 782.225, 988.787 764.295, 1005.730 751.624 C 1017.276 742.989, 1018.783 741.536, 1017.718 740.069 C 1012.488 732.867, 834.933 511.866, 832.617 509.676 C 826.421 503.818, 817.845 501.157, 811.055 502.985 C 808.869 503.574, 805.031 505.620, 802.525 507.533 C 800.019 509.445, 797.599 511.120, 797.146 511.255 C 796.693 511.390, 795.104 510.060, 793.615 508.301 L 790.908 505.102 828.704 474.911 C 849.492 458.306, 866.881 444.380, 867.346 443.964 C 868.014 443.367, 804.579 362.577, 798.121 355.799 C 796.608 354.212, 790.120 359.212, 701 430.639 M 2720.500 564.090 C 2641.850 652.070, 2575.170 726.665, 2572.323 729.855 L 2567.147 735.656 2583.780 748.078 C 2602.058 761.728, 2625.746 780.501, 2641.965 794.191 L 2652.430 803.025 2654.622 800.762 C 2655.828 799.518, 2678.505 774.200, 2705.017 744.500 C 2731.528 714.800, 2753.752 690.372, 2754.404 690.216 C 2755.055 690.060, 2756.534 690.960, 2757.691 692.216 L 2759.793 694.500 2724.877 765.279 L 2689.960 836.058 2716.230 861.908 C 2730.679 876.125, 2748.331 894.109, 2755.458 901.871 C 2762.585 909.633, 2768.711 915.650, 2769.071 915.242 C 2769.966 914.229, 2847.738 770.920, 2848.518 768.847 C 2849.016 767.523, 2845.551 765.324, 2831.090 757.791 L 2813.040 748.388 2814.688 745.944 C 2815.595 744.600, 2816.458 743.341, 2816.606 743.146 C 2816.754 742.951, 2820.166 744.591, 2824.188 746.791 C 2844.645 757.981, 2864.408 760.557, 2882.768 754.428 C 2914.224 743.928, 2948.539 716.377, 2981.076 675.500 C 3003.654 647.133, 3020.828 612.763, 3024.070 589.453 C 3026.797 569.844, 3019.387 548.947, 3002.572 528.831 C 2996.462 521.522, 2866.441 404.070, 2864.500 404.106 C 2863.950 404.117, 2799.150 476.109, 2720.500 564.090 M 1748 535.102 C 1535.023 543.364, 1326.783 606.039, 1141.996 717.495 C 973.261 819.268, 829.950 960.713, 724.906 1129.153 C 688.920 1186.858, 651.964 1259.428, 626.435 1322.522 C 519.577 1586.620, 504.184 1875.685, 582.525 2147.092 C 633.022 2322.035, 722.326 2487.147, 840.472 2624 C 889.516 2680.810, 946.414 2735.793, 1004.067 2782.090 C 1123.561 2878.047, 1258.244 2951.024, 1404 2998.789 C 1621.981 3070.225, 1854.231 3081.133, 2077 3030.398 C 2155.198 3012.589, 2233.792 2986.461, 2308.500 2953.435 C 2351.192 2934.563, 2409.379 2904.288, 2450.430 2879.590 C 2675.437 2744.211, 2853.455 2540.097, 2957.227 2298.500 C 3059.805 2059.685, 3087.004 1798.120, 3035.480 1545.980 C 2995.203 1348.877, 2907.340 1162.003, 2781.126 1005 C 2731.739 943.565, 2671.897 882.377, 2612 832.068 C 2486.402 726.577, 2345.509 648.191, 2189.639 597.089 C 2047.768 550.577, 1896.481 529.343, 1748 535.102 M 1753.500 538.671 C 1615.343 544.185, 1487.247 569.457, 1361.500 616.009 C 1138.595 698.529, 947.310 838.367, 802.191 1024.887 C 663.558 1203.072, 573.880 1420.597, 546.540 1645 C 539.689 1701.235, 537.538 1738.170, 537.544 1799.500 C 537.549 1850.021, 538.278 1867.959, 542.058 1910.500 C 560.621 2119.401, 631.645 2320.590, 749.103 2497 C 798.914 2571.811, 847.509 2630.662, 912.646 2695.061 C 926.866 2709.119, 945.700 2727.080, 954.500 2734.975 C 1155.781 2915.540, 1410.656 3027.156, 1679.500 3052.471 C 1747.748 3058.897, 1823.970 3059.603, 1892.500 3054.443 C 2105.563 3038.402, 2314.194 2966.627, 2494 2847.508 C 2676.894 2726.345, 2822.944 2561.664, 2921.923 2365 C 3000.019 2209.828, 3043.262 2048.899, 3055.203 1869 C 3056.915 1843.209, 3056.905 1749.911, 3055.187 1725 C 3046.907 1604.924, 3028.102 1507.126, 2993.079 1402 C 2891.894 1098.284, 2681.894 846.145, 2402.975 693.487 C 2214.723 590.451, 2003.590 536.878, 1791 538.202 C 1774.225 538.306, 1757.350 538.517, 1753.500 538.671 M 2846.378 585.616 C 2824.445 610.155, 2806.368 630.576, 2806.207 630.996 C 2806.045 631.416, 2812.502 637.664, 2820.555 644.880 C 2831.582 654.760, 2835.852 657.998, 2837.848 657.990 C 2850.462 657.944, 2884.565 626.939, 2903.283 598.500 C 2911.092 586.636, 2915.907 576.958, 2916.632 571.669 L 2917.221 567.374 2902.482 554.187 C 2894.376 546.934, 2887.409 541, 2887 541 C 2886.591 541, 2868.312 561.077, 2846.378 585.616 M 568 569.491 C 554.235 572.251, 540.483 579.597, 526.453 591.685 C 520.652 596.684, 404.002 725.540, 403.258 727.773 C 402.969 728.638, 733.718 1025.390, 735.365 1025.744 C 735.989 1025.878, 738.964 1022.508, 741.974 1018.256 C 750.115 1006.757, 774.137 976.110, 788.165 959.327 C 794.949 951.209, 801.052 943.816, 801.728 942.897 C 802.802 941.434, 796 934.988, 747.171 891.198 C 716.489 863.682, 690.888 840.569, 690.279 839.835 C 689.440 838.823, 689.719 837.864, 691.432 835.873 L 693.692 833.247 765.086 868.557 L 836.480 903.866 858.105 881.683 C 869.999 869.482, 887.897 851.879, 897.879 842.564 C 907.861 833.249, 915.680 825.280, 915.255 824.855 C 914.266 823.866, 767.865 743.994, 767.084 744.018 C 766.763 744.028, 762.312 752.130, 757.193 762.023 C 749.185 777.501, 747.651 779.874, 746.193 779.038 C 741.705 776.464, 741.711 776.500, 744.919 771.286 C 752.320 759.258, 757 743.347, 757 730.213 C 757 704.666, 739 672.924, 705.538 639.462 C 674.239 608.162, 642.429 586.371, 611 574.698 C 593.642 568.252, 581.511 566.782, 568 569.491 M 3081.978 607.812 C 3080.065 609.359, 3060.164 625.348, 3037.754 643.343 L 2997.008 676.062 3017.154 701.281 C 3028.234 715.151, 3037.917 727.221, 3038.671 728.102 C 3039.890 729.526, 3025.941 741.016, 2913.771 830.989 C 2844.322 886.696, 2786.954 932.775, 2786.288 933.387 C 2785.361 934.238, 2787.683 937.564, 2796.139 947.500 C 2809.917 963.690, 2830.700 989.613, 2842.888 1005.808 C 2847.982 1012.578, 2852.557 1017.978, 2853.055 1017.808 C 2853.942 1017.506, 3060.104 852.316, 3076.930 838.425 C 3087.282 829.880, 3091.140 823.732, 3091.212 815.664 C 3091.263 809.966, 3089.579 805.850, 3084.724 799.807 L 3081.756 796.114 3084.628 793.588 C 3086.208 792.200, 3087.950 791.066, 3088.500 791.070 C 3089.050 791.074, 3103.180 808.175, 3119.900 829.072 C 3136.619 849.969, 3150.681 866.939, 3151.147 866.783 C 3151.614 866.628, 3171.777 850.633, 3195.955 831.240 L 3239.915 795.981 3207.207 755.235 C 3189.218 732.824, 3154.724 689.854, 3130.553 659.744 C 3106.382 629.635, 3086.348 605, 3086.031 605 C 3085.715 605, 3083.891 606.265, 3081.978 607.812 M 553.383 690.497 C 546.297 698.470, 540.500 705.354, 540.500 705.795 C 540.500 706.785, 629.817 787, 630.920 787 C 632.368 787, 657.071 758.565, 657.659 756.221 C 658.417 753.202, 653.616 743.597, 646.802 734.500 C 631.566 714.158, 597.586 686.364, 578.213 678.397 C 567.864 674.141, 567.958 674.095, 553.383 690.497 M 354.672 802.250 C 351.735 806.788, 338.656 826.845, 325.607 846.822 C 312.558 866.798, 302.020 883.534, 302.191 884.013 C 302.778 885.664, 670.304 1125.095, 671.029 1124.299 C 671.428 1123.859, 677.061 1114.950, 683.547 1104.500 C 696.197 1084.115, 711.080 1061.497, 722.229 1045.713 C 726.031 1040.331, 728.998 1035.497, 728.821 1034.972 C 728.521 1034.080, 361.564 794, 360.500 794 C 360.232 794, 357.609 797.712, 354.672 802.250 M 3070.500 946.534 C 2955 990.779, 2860.171 1027.097, 2859.768 1027.240 C 2859.366 1027.383, 2862.236 1032, 2866.147 1037.500 C 2876.877 1052.591, 2901.474 1089.676, 2911.448 1105.800 C 2916.314 1113.666, 2920.791 1119.904, 2921.397 1119.662 C 2922.004 1119.421, 2940.409 1111.298, 2962.298 1101.612 C 2984.187 1091.925, 3002.437 1084, 3002.854 1084 C 3003.555 1084, 3030 1130.087, 3030 1131.307 C 3030 1131.606, 3013.743 1143.245, 2993.874 1157.171 C 2974.005 1171.097, 2957.562 1182.977, 2957.335 1183.570 C 2957.107 1184.163, 2963.808 1198.565, 2972.224 1215.574 C 2980.641 1232.583, 2991.122 1254.720, 2995.514 1264.766 C 2999.987 1274.999, 3004.012 1282.916, 3004.665 1282.766 C 3007.219 1282.182, 3360.076 1004.651, 3359.798 1003.445 C 3359.148 1000.623, 3282.434 866.004, 3281.500 866.045 C 3280.950 866.069, 3186 902.289, 3070.500 946.534 M 231.501 1011.998 C 201.525 1071.947, 177 1121.337, 177 1121.753 C 177 1122.538, 278.011 1173.343, 278.501 1172.805 C 278.653 1172.637, 285.579 1158.888, 293.892 1142.251 L 309.006 1112.001 455.114 1185.057 C 535.473 1225.237, 601.353 1257.974, 601.514 1257.806 C 601.674 1257.638, 604.741 1251.150, 608.329 1243.389 C 616.613 1225.466, 632.108 1194.494, 641.630 1176.824 C 645.684 1169.302, 649 1162.671, 649 1162.089 C 649 1160.430, 385.789 1029.148, 379.954 1027.897 C 369.552 1025.666, 360.381 1030.324, 355.315 1040.410 C 353.910 1043.209, 352.632 1045.644, 352.477 1045.820 C 352.321 1045.996, 350.406 1045.227, 348.220 1044.112 L 344.247 1042.085 366.123 998.640 C 378.156 974.744, 387.997 954.813, 387.993 954.347 C 387.986 953.591, 288.096 903, 286.609 903 C 286.275 903, 261.476 952.049, 231.501 1011.998 M 3244.541 975.598 C 3236.876 980.220, 3221.187 988.005, 3213.500 991.001 C 3206.757 993.629, 3097.930 1045.661, 3096.834 1046.781 C 3095.995 1047.639, 3108.965 1071, 3110.280 1071 C 3111.625 1071, 3212.199 1005.046, 3221.200 998.262 C 3228.223 992.969, 3236.464 987.776, 3249.253 980.585 L 3254.006 977.912 3252.477 974.956 C 3251.637 973.330, 3250.848 972.001, 3250.724 972.003 C 3250.601 972.004, 3247.818 973.622, 3244.541 975.598 M 3364.621 1145.540 C 3336.088 1155.101, 3312.477 1163.190, 3312.151 1163.515 C 3311.723 1163.944, 3328.352 1215.819, 3332.698 1227.611 C 3332.951 1228.298, 3274.523 1248.298, 3179.629 1280.006 C 3095.216 1308.211, 3025.615 1331.620, 3024.959 1332.025 C 3024.100 1332.557, 3025.723 1338.158, 3030.788 1352.131 C 3037.875 1371.686, 3052.108 1414.794, 3055.589 1427.250 C 3056.626 1430.963, 3058.006 1434, 3058.655 1434 C 3061.918 1434, 3338.028 1340.648, 3341.974 1338.211 C 3347.384 1334.868, 3352.068 1327.691, 3352.687 1321.792 C 3352.980 1318.998, 3352.415 1315.436, 3351.066 1311.586 C 3349.927 1308.333, 3349.108 1305.587, 3349.247 1305.484 C 3349.786 1305.085, 3356.339 1303, 3357.056 1303 C 3357.473 1303, 3364.618 1323.362, 3372.935 1348.250 C 3381.251 1373.138, 3388.429 1394.098, 3388.885 1394.828 C 3389.535 1395.869, 3401.185 1392.311, 3442.607 1378.423 C 3471.698 1368.669, 3495.881 1360.356, 3496.346 1359.949 C 3496.811 1359.541, 3479.762 1307.186, 3458.459 1243.604 C 3428.053 1152.853, 3419.379 1128.017, 3418.113 1128.078 C 3417.226 1128.121, 3393.155 1135.979, 3364.621 1145.540 M 119.512 1288.250 C 117.253 1294.884, 80.918 1439.341, 81.275 1440.267 C 81.615 1441.149, 483.607 1611.945, 496.023 1616.483 C 497.297 1616.949, 498.162 1613.162, 501.329 1593.270 C 504.882 1570.947, 516.450 1510.699, 517.513 1508.979 C 517.779 1508.548, 516.761 1507.751, 515.249 1507.208 C 479.960 1494.539, 434.308 1477.672, 433.699 1477.079 C 432.494 1475.904, 446.068 1424, 447.580 1424 C 448.267 1424, 467.633 1426.925, 490.615 1430.500 C 513.597 1434.075, 533.191 1437, 534.158 1437 C 535.482 1437, 536.427 1435.213, 537.990 1429.750 C 541.810 1416.399, 560.906 1358.650, 565.849 1345.500 C 568.536 1338.350, 570.655 1332.398, 570.557 1332.273 C 570.299 1331.943, 125.484 1287, 122.474 1287 C 121.079 1287, 119.746 1287.563, 119.512 1288.250 M 177.947 1381.641 C 176.484 1385.487, 176.705 1385.847, 181.250 1387.020 C 198.738 1391.535, 205.879 1393.727, 215.500 1397.534 C 229.446 1403.053, 339.956 1439.377, 340.659 1438.674 C 340.948 1438.385, 342.675 1432.235, 344.498 1425.007 C 346.814 1415.823, 347.464 1411.748, 346.656 1411.476 C 343.633 1410.457, 226.715 1388.787, 219.611 1387.929 C 209.106 1386.659, 193.181 1383.482, 185.197 1381.061 L 178.893 1379.151 177.947 1381.641 M 3284.500 1429.714 C 3166.250 1454.759, 3069.393 1475.339, 3069.262 1475.446 C 3069.131 1475.554, 3071.246 1485.060, 3073.961 1496.571 C 3079.034 1518.080, 3085.076 1547.091, 3089.010 1568.828 C 3091.108 1580.423, 3091.367 1581.125, 3093.370 1580.629 C 3094.542 1580.339, 3191.575 1559.789, 3309 1534.963 C 3426.425 1510.136, 3522.578 1489.747, 3522.674 1489.654 C 3523.094 1489.246, 3500.535 1384.009, 3500.046 1384.089 C 3499.745 1384.138, 3402.750 1404.669, 3284.500 1429.714 M 62.566 1522.250 C 61.244 1528.541, 40.931 1763.315, 41.654 1763.939 C 42.119 1764.340, 66.800 1766.790, 96.500 1769.383 C 126.200 1771.976, 151.400 1774.188, 152.500 1774.299 C 154.410 1774.491, 154.639 1772.987, 157.592 1740.741 C 159.293 1722.174, 160.874 1706.792, 161.106 1706.561 C 161.338 1706.329, 233.521 1712.625, 321.514 1720.552 C 409.506 1728.479, 482.738 1734.973, 484.250 1734.982 C 486.940 1735, 487 1734.872, 487 1729.123 C 487 1716.696, 492.459 1655.821, 495.681 1632.311 C 496.207 1628.471, 496.049 1628.060, 493.879 1627.615 C 488.854 1626.583, 208.259 1601.863, 201.810 1601.883 C 187.053 1601.930, 179.024 1608.829, 177.440 1622.824 L 176.742 1629 172.371 1629 C 169.967 1629, 167.980 1628.662, 167.956 1628.250 C 167.932 1627.838, 169.826 1605.807, 172.166 1579.293 C 174.505 1552.779, 176.125 1530.792, 175.765 1530.432 C 175.201 1529.868, 71.378 1520.088, 65.269 1520.024 C 63.752 1520.008, 62.887 1520.720, 62.566 1522.250 M 3315.515 1577.688 C 3193.423 1584.535, 3093.374 1590.293, 3093.183 1590.484 C 3092.992 1590.675, 3094.208 1600.432, 3095.885 1612.166 C 3099.387 1636.670, 3102.326 1662.037, 3104.120 1683.250 L 3105.368 1698 3107.952 1698 C 3109.374 1698, 3142.695 1696.200, 3182 1694 C 3221.305 1691.800, 3254.736 1690, 3256.292 1690 C 3258.942 1690, 3259.101 1690.233, 3258.810 1693.691 L 3258.500 1697.382 3183.500 1722.788 L 3108.500 1748.195 3108.487 1804.152 C 3108.475 1859.323, 3108.502 1860.102, 3110.443 1859.594 C 3127.908 1855.027, 3270 1812.240, 3270 1811.548 C 3270 1811.020, 3267.464 1802.308, 3264.364 1792.187 C 3259.745 1777.104, 3258.978 1773.624, 3260.114 1772.887 C 3263.592 1770.632, 3264.996 1772.365, 3268.854 1783.675 C 3270.950 1789.822, 3274.203 1797.435, 3276.083 1800.595 C 3280.721 1808.391, 3290.281 1818.545, 3297.231 1823.055 C 3304.596 1827.835, 3318.160 1833.250, 3330.650 1836.395 C 3387.511 1850.714, 3474.154 1840.015, 3514.871 1813.647 C 3537.639 1798.904, 3548.332 1775.298, 3548.233 1740 C 3548.196 1727.031, 3540.877 1586.804, 3539.424 1571.250 C 3539.103 1567.813, 3538.539 1565.054, 3538.170 1565.120 C 3537.802 1565.186, 3437.607 1570.842, 3315.515 1577.688 M 3394.162 1681.547 C 3362.626 1683.360, 3336.572 1685.095, 3336.264 1685.403 C 3335.551 1686.115, 3337.638 1722.922, 3338.520 1725.204 C 3340.452 1730.202, 3356.438 1733.955, 3379.056 1734.720 C 3409.998 1735.768, 3446.027 1729.544, 3456.877 1721.277 L 3460.254 1718.704 3459.598 1705.102 C 3459.237 1697.621, 3458.672 1688.463, 3458.342 1684.750 L 3457.742 1678 3454.621 1678.125 C 3452.904 1678.194, 3425.698 1679.734, 3394.162 1681.547 M 404.697 1785.535 C 360.806 1799.415, 324.647 1811.020, 324.343 1811.323 C 324.040 1811.627, 326.572 1820.216, 329.971 1830.412 C 333.369 1840.608, 335.897 1849.357, 335.589 1849.855 C 335.282 1850.354, 333.921 1850.973, 332.567 1851.232 C 330.271 1851.671, 329.931 1851.163, 327.535 1843.736 C 317.285 1811.959, 300.888 1797.682, 264 1788.418 C 233.928 1780.865, 185.932 1781.359, 145.107 1789.640 C 118.549 1795.027, 86.759 1807.883, 74.141 1818.340 C 63.048 1827.532, 55.238 1839.949, 51.055 1855.043 C 48.311 1864.947, 46.661 1882.498, 47.441 1893.500 C 50.971 1943.307, 60.046 2062.380, 60.334 2062.668 C 60.834 2063.167, 504.208 2030.125, 504.789 2029.545 C 505.041 2029.293, 503.617 2018.811, 501.626 2006.251 C 498.170 1984.460, 492.938 1944.751, 491.476 1929.212 L 490.789 1921.925 485.145 1922.498 C 475.252 1923.503, 345.423 1933, 341.575 1933 C 337.929 1933, 337.883 1932.951, 338.190 1929.327 L 338.500 1925.654 412.500 1899.022 L 486.500 1872.391 486.352 1865.945 C 486.271 1862.400, 485.893 1837.225, 485.513 1810 C 485.133 1782.775, 484.749 1760.455, 484.661 1760.399 C 484.572 1760.344, 448.589 1771.655, 404.697 1785.535 M 3438 1853.518 C 3438 1856.407, 3430.953 1919.380, 3430.589 1919.744 C 3430.388 1919.945, 3357.446 1912.187, 3268.496 1902.504 C 3179.545 1892.821, 3106.653 1885.034, 3106.514 1885.200 C 3106.374 1885.365, 3105.726 1892.025, 3105.075 1900 C 3103.270 1922.090, 3101.119 1942.538, 3098.397 1963.500 C 3097.040 1973.950, 3095.661 1984.606, 3095.334 1987.180 L 3094.738 1991.860 3098.119 1992.439 C 3099.979 1992.757, 3165.850 2000.017, 3244.500 2008.571 C 3340.906 2019.058, 3389.099 2023.924, 3392.406 2023.508 C 3404.732 2021.955, 3413 2012.645, 3413 2000.318 C 3413 1997.052, 3413.071 1997, 3417.500 1997 C 3421.497 1997, 3422.001 1997.252, 3422.012 1999.250 C 3422.018 2000.487, 3419.732 2022.576, 3416.930 2048.335 C 3414.129 2074.095, 3412.022 2095.355, 3412.247 2095.581 C 3413.176 2096.510, 3524.299 2108.092, 3524.964 2107.330 C 3525.629 2106.568, 3552.192 1864.858, 3551.668 1864.335 C 3551.416 1864.083, 3441.287 1851.999, 3439.250 1852 C 3438.563 1852, 3438 1852.683, 3438 1853.518 M 200 1891.111 C 173.569 1892.629, 143.647 1900.208, 137.570 1906.923 C 135.928 1908.737, 135.915 1909.989, 137.338 1928.516 C 138.170 1939.333, 138.997 1948.330, 139.178 1948.511 C 139.579 1948.913, 260.359 1939.932, 260.852 1939.464 C 261.446 1938.900, 258.293 1900.284, 257.556 1899.090 C 253.840 1893.078, 228.035 1889.500, 200 1891.111 M 3092.573 2005.146 C 3092.329 2005.891, 3091.608 2009.875, 3090.970 2014 C 3088.496 2030.002, 3081.669 2064.585, 3076.390 2087.849 C 3073.352 2101.242, 3071.015 2112.349, 3071.199 2112.532 C 3071.382 2112.715, 3089.975 2119.933, 3112.516 2128.571 C 3135.057 2137.210, 3153.869 2144.607, 3154.321 2145.010 C 3154.995 2145.611, 3141.597 2196.678, 3140.454 2197.866 C 3140.260 2198.068, 3120.230 2194.779, 3095.942 2190.558 C 3071.655 2186.337, 3051.641 2183.026, 3051.466 2183.200 C 3051.292 2183.375, 3047.123 2195.664, 3042.202 2210.509 C 3037.281 2225.354, 3029.147 2248.344, 3024.127 2261.597 C 3019.107 2274.851, 3015 2286.214, 3015 2286.847 C 3015 2287.481, 3015.699 2288, 3016.554 2288 C 3017.408 2288, 3117.585 2299.925, 3239.170 2314.500 C 3360.754 2329.075, 3461.196 2341, 3462.376 2341 C 3464.364 2341, 3466.052 2335.471, 3485.654 2264.750 C 3497.278 2222.813, 3506.498 2188.206, 3506.144 2187.847 C 3505.654 2187.350, 3100.090 2006.607, 3094.258 2004.287 C 3093.576 2004.015, 3092.817 2004.402, 3092.573 2005.146 M 291.327 2089.346 C 174.632 2116.388, 78.872 2138.795, 78.527 2139.140 C 77.947 2139.720, 101.376 2242.709, 102.297 2243.631 C 102.525 2243.858, 199.053 2221.759, 316.804 2194.522 C 434.555 2167.285, 531.064 2145, 531.268 2145 C 531.473 2145, 528.806 2133.863, 525.341 2120.250 C 519.242 2096.285, 509.893 2054.448, 508.470 2044.750 C 507.882 2040.741, 507.440 2040.014, 505.636 2040.090 C 504.461 2040.139, 408.022 2062.305, 291.327 2089.346 M 402.304 2234.415 C 311.539 2266.754, 262.694 2284.633, 259.990 2286.507 C 255.168 2289.849, 251.023 2296.409, 250.292 2301.857 C 249.982 2304.175, 250.500 2308.067, 251.592 2311.607 C 252.591 2314.848, 253.429 2317.888, 253.454 2318.361 C 253.502 2319.256, 246.164 2322.532, 245.587 2321.874 C 245.407 2321.668, 237.924 2300.800, 228.958 2275.500 C 219.992 2250.200, 212.588 2229.391, 212.504 2229.258 C 212.322 2228.972, 105.902 2266.764, 105.359 2267.308 C 104.872 2267.794, 185.994 2496.223, 187.070 2497.396 C 188.082 2498.499, 294 2461.024, 294 2459.563 C 294 2458.995, 288.987 2444.450, 282.860 2427.239 C 276.733 2410.028, 271.895 2395.778, 272.110 2395.572 C 272.324 2395.366, 341.125 2370.816, 425 2341.016 C 508.875 2311.216, 577.842 2286.507, 578.261 2286.106 C 578.679 2285.706, 575.864 2277.176, 572.004 2267.150 C 563.510 2245.091, 553.718 2217.350, 547.859 2198.750 C 544.741 2188.850, 543.105 2185.025, 542.014 2185.088 C 541.181 2185.137, 478.312 2207.334, 402.304 2234.415 M 3242.914 2198.252 C 3239.749 2209.949, 3239.515 2211.587, 3240.914 2212.242 C 3243.513 2213.458, 3356.582 2236.755, 3368.385 2238.507 C 3374.372 2239.395, 3384.497 2241.492, 3390.885 2243.165 C 3408.165 2247.693, 3407.619 2247.653, 3408.423 2244.449 C 3408.801 2242.943, 3408.748 2241.401, 3408.305 2241.023 C 3407.862 2240.645, 3402.775 2239.097, 3397 2237.584 C 3391.225 2236.070, 3381.550 2232.831, 3375.500 2230.386 C 3364.952 2226.122, 3248.717 2184.998, 3247.224 2185.002 C 3246.826 2185.003, 3244.886 2190.965, 3242.914 2198.252 M 421.500 2471.651 C 325.250 2549.474, 246.500 2613.756, 246.500 2614.502 C 246.500 2615.247, 264.275 2646.289, 286 2683.484 C 319.826 2741.398, 325.787 2751.052, 327.500 2750.690 C 329.553 2750.257, 742.227 2585.532, 744.632 2584.186 C 745.611 2583.638, 742.609 2578.777, 733.382 2565.969 C 720.344 2547.871, 699.694 2517.375, 689.527 2501.204 C 686.312 2496.091, 683.191 2492.116, 682.591 2492.371 C 681.991 2492.625, 663.861 2500.971, 642.302 2510.916 C 620.743 2520.862, 602.678 2529, 602.159 2529 C 601.175 2529, 573.437 2482.161, 574.114 2481.644 C 574.326 2481.482, 588.450 2471.292, 605.500 2459 C 622.550 2446.708, 638.855 2434.921, 641.733 2432.807 L 646.966 2428.962 641.938 2419.731 C 633.294 2403.863, 617.067 2371.339, 607.407 2350.523 C 602.309 2339.535, 597.769 2330.458, 597.319 2330.351 C 596.868 2330.243, 517.750 2393.829, 421.500 2471.651 M 2991.847 2339.762 C 2983.317 2358.336, 2968.598 2388.354, 2958.632 2407.500 C 2952.907 2418.500, 2948.286 2427.576, 2948.364 2427.670 C 2949.094 2428.541, 3209.800 2556.697, 3213.725 2558.114 C 3219.855 2560.327, 3227.746 2560.554, 3232.282 2558.648 C 3236.697 2556.792, 3241.239 2551.895, 3243.988 2546.025 L 3246.291 2541.108 3250.146 2543.074 C 3252.266 2544.156, 3253.997 2545.369, 3253.993 2545.770 C 3253.990 2546.172, 3244.317 2566.010, 3232.499 2589.855 C 3220.681 2613.701, 3211.202 2633.517, 3211.433 2633.892 C 3212.044 2634.881, 3312.920 2684.435, 3313.287 2683.927 C 3314.285 2682.544, 3420.559 2466.587, 3420.830 2465.392 C 3421.063 2464.359, 3406.419 2456.672, 3370.440 2438.941 C 3342.544 2425.194, 3319.608 2414.071, 3319.471 2414.223 C 3319.334 2414.375, 3312.421 2428.113, 3304.108 2444.750 C 3295.795 2461.387, 3288.797 2475, 3288.557 2475 C 3288.317 2475, 3230.156 2446.372, 3159.310 2411.383 C 3088.465 2376.394, 3022.706 2344, 3013.180 2339.396 L 2995.859 2331.025 2991.847 2339.762 M 2925.432 2467.131 C 2920.442 2476.780, 2882.320 2536.024, 2870.266 2552.860 C 2869.159 2554.407, 2887.995 2566.798, 3053.718 2673.542 C 3155.295 2738.969, 3238.875 2792.597, 3239.452 2792.715 C 3240.979 2793.028, 3298.442 2703.040, 3297.382 2701.995 C 3296.240 2700.868, 2929.879 2464.918, 2928.318 2464.303 C 2927.667 2464.047, 2926.369 2465.320, 2925.432 2467.131 M 444 2577.319 C 416.225 2596.132, 388.689 2615.119, 382.808 2619.512 C 376.927 2623.906, 367.815 2629.920, 362.558 2632.878 C 357.301 2635.836, 353.014 2638.761, 353.032 2639.378 C 353.049 2639.995, 353.742 2641.398, 354.572 2642.495 C 356.062 2644.468, 356.117 2644.469, 359.290 2642.582 C 371.404 2635.377, 381.032 2630.346, 391.944 2625.520 C 398.850 2622.466, 428.206 2608.162, 457.179 2593.733 L 509.858 2567.500 502.679 2555.268 C 498.731 2548.540, 495.275 2543.053, 495 2543.075 C 494.725 2543.096, 471.775 2558.506, 444 2577.319 M 2848.438 2582.715 C 2835.061 2600.630, 2815.605 2625.346, 2801.998 2641.711 C 2799.158 2645.127, 2797.131 2648.404, 2797.495 2648.992 C 2797.859 2649.581, 2823.286 2672.309, 2854 2699.500 C 2884.714 2726.691, 2910.090 2749.336, 2910.391 2749.823 C 2910.692 2750.311, 2909.830 2751.751, 2908.475 2753.023 L 2906.012 2755.337 2896.756 2750.946 C 2891.665 2748.532, 2859.622 2732.982, 2825.549 2716.393 L 2763.599 2686.230 2731.049 2718.960 C 2713.147 2736.961, 2695.221 2754.743, 2691.213 2758.475 C 2687.205 2762.206, 2684.055 2765.379, 2684.213 2765.526 C 2685.177 2766.422, 2832.267 2845, 2832.981 2845 C 2833.463 2845, 2837.995 2836.952, 2843.050 2827.116 L 2852.243 2809.232 2855.114 2810.866 C 2856.694 2811.765, 2857.877 2812.725, 2857.743 2813 C 2857.609 2813.275, 2855.353 2817.775, 2852.728 2823 C 2844.188 2840.001, 2841.436 2855.408, 2844.327 2870.020 C 2847.286 2884.972, 2859.125 2907.696, 2873.231 2925.500 C 2882.728 2937.486, 2906.859 2961.411, 2920.500 2972.364 C 2951.009 2996.863, 2985.379 3014.873, 3009.709 3019.110 C 3028.904 3022.453, 3049.844 3015.942, 3069.422 3000.544 C 3080.132 2992.121, 3078.640 2993.734, 3142.323 2921.715 L 3197.841 2858.931 3193.170 2854.631 C 3187.623 2849.523, 2867.158 2566.081, 2864.821 2564.215 C 2863.412 2563.091, 2861.375 2565.391, 2848.438 2582.715 M 640 2685.548 C 578.675 2736.352, 526.587 2780.005, 524.250 2782.556 C 519.193 2788.074, 516.476 2795.937, 517.510 2802.060 C 517.920 2804.489, 519.958 2808.407, 522.726 2812.088 L 527.268 2818.131 523.884 2821.020 L 520.500 2823.909 518.638 2821.705 C 517.614 2820.492, 503.474 2803.401, 487.216 2783.724 C 470.958 2764.047, 457.323 2748.072, 456.917 2748.224 C 455.360 2748.805, 370.104 2819.541, 370.053 2820.293 C 369.991 2821.214, 523.471 3007.055, 525.403 3008.399 C 526.323 3009.038, 539.142 2998.995, 569.815 2973.607 C 593.530 2953.977, 613.115 2937.598, 613.336 2937.208 C 613.558 2936.819, 604.057 2924.841, 592.224 2910.592 C 576.688 2891.883, 570.958 2884.309, 571.605 2883.335 C 572.097 2882.592, 628.075 2836.059, 696 2779.926 C 763.925 2723.793, 819.915 2677.273, 820.423 2676.547 C 821.089 2675.595, 818.426 2671.925, 810.854 2663.364 C 796.719 2647.380, 776.778 2623.260, 764 2606.689 C 758.225 2599.200, 753.050 2593.097, 752.500 2593.126 C 751.950 2593.155, 701.325 2634.745, 640 2685.548 M 799.383 2768.254 C 777.997 2809.012, 760.358 2842.936, 760.184 2843.641 C 759.990 2844.429, 766.858 2848.422, 777.975 2853.988 L 796.082 2863.052 794.320 2866.035 C 793.351 2867.677, 792.320 2868.898, 792.029 2868.751 C 791.738 2868.603, 787.784 2866.567, 783.242 2864.226 C 778.701 2861.885, 770.923 2858.805, 765.958 2857.381 C 757.958 2855.086, 755.598 2854.840, 745.216 2855.215 C 731.936 2855.695, 726.168 2857.306, 711.648 2864.592 C 693.120 2873.890, 675.770 2887.284, 656.404 2907.241 C 623.682 2940.960, 601.684 2975.143, 590.803 3009.178 C 587.765 3018.681, 587.504 3020.532, 587.512 3032.500 C 587.520 3044.508, 587.759 3046.168, 590.640 3054.248 C 594.968 3066.381, 602.813 3078.411, 614 3090.064 C 619.225 3095.507, 651.834 3124.501, 686.464 3154.494 L 749.427 3209.027 751.634 3206.764 C 756.553 3201.719, 1042 2872.483, 1042 2871.854 C 1042 2871.481, 1037.162 2867.669, 1031.250 2863.383 C 1011.276 2848.904, 992.582 2834.654, 974.723 2820.294 C 964.945 2812.432, 956.620 2806.032, 956.223 2806.071 C 955.825 2806.111, 933.900 2831.106, 907.500 2861.617 C 881.100 2892.128, 858.588 2917.955, 857.473 2919.011 C 855.471 2920.906, 855.410 2920.902, 852.720 2918.715 L 849.995 2916.500 883.998 2845.070 C 902.699 2805.783, 918 2773.332, 918 2772.956 C 918 2772.580, 909.946 2764.780, 900.102 2755.622 C 890.257 2746.464, 872.317 2728.886, 860.235 2716.560 L 838.266 2694.148 799.383 2768.254 M 2649.862 2794.901 C 2634.103 2808.601, 2607.493 2830.139, 2591.737 2841.947 C 2585.299 2846.772, 2582.264 2849.644, 2582.827 2850.382 C 2586.853 2855.660, 2761.599 3070.957, 2765.679 3075.666 C 2772.152 3083.136, 2779.163 3087, 2786.246 3087 C 2791.653 3087, 2795.533 3085.343, 2801.566 3080.459 L 2805.633 3077.167 2808.316 3080.530 C 2809.792 3082.380, 2811 3084.072, 2811 3084.290 C 2811 3084.509, 2793.890 3098.567, 2772.979 3115.530 C 2752.067 3132.494, 2735.080 3146.728, 2735.229 3147.161 C 2735.585 3148.197, 2805.205 3234.008, 2806.175 3234.608 C 2806.585 3234.862, 2849.701 3200.352, 2901.988 3157.920 C 2966.221 3105.794, 2996.774 3080.403, 2996.189 3079.636 C 2994 3076.768, 2930.315 2998.131, 2927.869 2995.276 L 2925.107 2992.052 2898.983 3013.276 C 2884.615 3024.949, 2872.552 3034.613, 2872.176 3034.751 C 2871.800 3034.890, 2825.369 2978.101, 2768.996 2908.555 C 2712.623 2839.009, 2666.050 2782.123, 2665.500 2782.142 C 2664.950 2782.160, 2657.913 2787.902, 2649.862 2794.901 M 2956.124 2815.683 C 2941.761 2831.922, 2941.355 2832.818, 2944.878 2840.500 C 2949.739 2851.099, 2968.535 2872.220, 2985.105 2885.703 C 3006.312 2902.960, 3029.384 2914.876, 3034.540 2911.235 C 3036.579 2909.795, 3060 2882.918, 3060 2882.018 C 3060 2881.514, 3040.537 2863.911, 3016.750 2842.899 C 2992.963 2821.888, 2972.539 2803.835, 2971.365 2802.782 L 2969.229 2800.867 2956.124 2815.683 M 2563 2863.180 C 2549.750 2872.840, 2512.253 2898.001, 2495.500 2908.474 C 2487.800 2913.287, 2481.359 2917.353, 2481.187 2917.509 C 2481.015 2917.665, 2489.051 2935.951, 2499.045 2958.146 C 2509.038 2980.341, 2517.279 2999.055, 2517.357 2999.733 C 2517.436 3000.412, 2506.925 3007.024, 2494 3014.427 C 2476.005 3024.734, 2470.234 3027.607, 2469.363 3026.693 C 2468.738 3026.037, 2456.906 3009.525, 2443.069 2990 C 2429.232 2970.475, 2417.594 2954.511, 2417.206 2954.524 C 2416.818 2954.537, 2401.650 2961.971, 2383.500 2971.045 C 2365.350 2980.119, 2343.525 2990.613, 2335 2994.366 C 2326.475 2998.118, 2319.127 3001.542, 2318.671 3001.973 C 2317.472 3003.109, 2597.817 3356.515, 2599.856 3356.437 C 2601.960 3356.357, 2737 3279.111, 2737 3277.988 C 2737 3276.718, 2573.944 2857.595, 2573.171 2856.877 C 2572.802 2856.535, 2568.225 2859.371, 2563 2863.180 M 933.070 3063.684 C 839.217 3212.464, 816.193 3249.607, 817.219 3250.575 C 818.942 3252.200, 905.978 3307.001, 906.829 3306.997 C 907.601 3306.993, 1142.396 2935.002, 1141.856 2934.640 C 1141.660 2934.508, 1131.825 2928.624, 1120 2921.565 C 1108.175 2914.505, 1088.012 2901.815, 1075.194 2893.364 C 1062.375 2884.914, 1051.508 2878, 1051.044 2878 C 1050.581 2878, 997.492 2961.558, 933.070 3063.684 M 764.521 2956.540 C 738.734 2970.251, 695.761 3023.421, 695.551 3041.876 L 695.500 3046.382 710 3059.160 C 717.975 3066.188, 724.863 3071.831, 725.307 3071.700 C 726.324 3071.400, 805 2980.813, 805 2979.943 C 805 2979.591, 798.457 2973.609, 790.459 2966.651 C 774.083 2952.403, 773.055 2952.003, 764.521 2956.540 M 1114.045 3088.733 C 1056.073 3209.024, 1049.552 3223.044, 1049.179 3228.200 C 1048.326 3239.993, 1051.592 3245.746, 1062.174 3251.088 L 1068.021 3254.039 1065.948 3258.103 C 1064.798 3260.356, 1063.346 3261.946, 1062.687 3261.673 C 1062.034 3261.402, 1042.322 3251.914, 1018.881 3240.590 C 995.441 3229.265, 975.842 3220, 975.328 3220 C 974.815 3220, 963.308 3242.982, 949.759 3271.070 L 925.123 3322.141 938.311 3328.421 C 945.565 3331.876, 995.082 3355.717, 1048.349 3381.401 C 1101.617 3407.086, 1145.666 3427.945, 1146.237 3427.754 C 1147.727 3427.258, 1196.060 3326.657, 1195.209 3325.824 C 1194.819 3325.443, 1181 3318.631, 1164.500 3310.686 C 1148 3302.742, 1134.586 3295.850, 1134.692 3295.371 C 1134.798 3294.892, 1166.422 3229.102, 1204.969 3149.170 C 1243.515 3069.239, 1275.154 3003.376, 1275.277 3002.808 C 1275.399 3002.240, 1268.975 2998.888, 1261 2995.357 C 1250.607 2990.757, 1187.014 2959.672, 1178.998 2955.274 C 1178.722 2955.123, 1149.493 3015.179, 1114.045 3088.733 M 1294.641 3244.583 C 1280.996 3368.103, 1270.013 3469.346, 1270.233 3469.567 C 1270.454 3469.787, 1305.029 3479.145, 1347.067 3490.361 C 1399.586 3504.374, 1423.703 3510.402, 1424.148 3509.627 C 1425.118 3507.942, 1603.108 3097.644, 1603.319 3096.610 C 1603.418 3096.120, 1594.628 3094.238, 1583.785 3092.426 C 1561.459 3088.696, 1540.865 3084.683, 1514.127 3078.852 C 1504.022 3076.649, 1495.393 3075.218, 1494.951 3075.673 C 1494.510 3076.128, 1487.332 3094.725, 1479 3117 C 1470.668 3139.275, 1463.547 3157.789, 1463.176 3158.142 C 1462.623 3158.667, 1411.154 3145.488, 1410.259 3144.592 C 1410.109 3144.443, 1413.140 3125.133, 1416.994 3101.680 C 1420.847 3078.228, 1424 3058.238, 1424 3057.258 C 1424 3055.910, 1422.352 3055.013, 1417.250 3053.585 C 1404.706 3050.072, 1357.623 3034.184, 1338.672 3027.069 C 1328.316 3023.181, 1319.755 3020, 1319.647 3020 C 1319.539 3020, 1308.286 3121.062, 1294.641 3244.583 M 2255.500 3027.081 C 2245.600 3030.826, 2222.875 3038.725, 2205 3044.632 C 2187.125 3050.539, 2172.409 3055.417, 2172.299 3055.471 C 2171.860 3055.685, 2267.770 3332.704, 2269.295 3335.630 C 2275.447 3347.428, 2285.887 3351.643, 2298.401 3347.379 C 2303.599 3345.608, 2304.185 3345.878, 2305.827 3350.795 C 2306.665 3353.303, 2306.637 3354.199, 2305.714 3354.542 C 2305.046 3354.791, 2284.284 3361.974, 2259.576 3370.504 C 2234.868 3379.035, 2214.435 3386.231, 2214.170 3386.497 C 2213.467 3387.199, 2250.351 3493.991, 2251.298 3493.996 C 2252.720 3494.003, 2481.480 3414.897, 2482.090 3414.187 C 2482.648 3413.538, 2446.686 3308.353, 2445.502 3307.168 C 2444.875 3306.542, 2442.935 3307.168, 2406.500 3319.747 L 2380.500 3328.724 2327.593 3175.112 C 2298.495 3090.625, 2274.420 3021.223, 2274.093 3020.885 C 2273.767 3020.547, 2265.400 3023.335, 2255.500 3027.081 M 2125.500 3068.130 C 2117.906 3070.555, 2075.088 3080.395, 2052.675 3084.866 C 2039.021 3087.589, 2027.589 3090.078, 2027.270 3090.396 C 2026.603 3091.064, 2120.875 3518.102, 2121.951 3519.281 C 2122.593 3519.986, 2225.628 3497.706, 2226.704 3496.629 C 2227.080 3496.253, 2135.885 3082.221, 2132.899 3070.750 C 2131.856 3066.742, 2130.903 3066.405, 2125.500 3068.130 M 1997 3094.628 C 1977.744 3097.773, 1948.600 3101.512, 1926.750 3103.641 L 1909 3105.370 1909.067 3109.935 C 1909.104 3112.446, 1911.260 3146.675, 1913.860 3186 C 1917.095 3234.951, 1918.256 3257.732, 1917.543 3258.235 C 1916.969 3258.639, 1915.309 3258.976, 1913.854 3258.985 C 1911.382 3258.999, 1910.947 3258.261, 1907.235 3247.750 C 1905.050 3241.563, 1893.279 3207.925, 1881.077 3173 L 1858.892 3109.500 1802.946 3109.500 C 1766.298 3109.500, 1747.010 3109.845, 1747.028 3110.500 C 1747.101 3113.178, 1795.876 3270.459, 1796.721 3270.740 C 1797.258 3270.919, 1805.977 3268.405, 1816.098 3265.154 L 1834.500 3259.242 1835.800 3262.237 C 1836.516 3263.885, 1836.966 3265.342, 1836.800 3265.475 C 1836.635 3265.608, 1833.125 3266.721, 1829 3267.949 C 1812.309 3272.916, 1796.580 3282.993, 1788.646 3293.801 C 1780.461 3304.951, 1773.757 3323.191, 1769.828 3345 C 1767.163 3359.791, 1766.237 3394.142, 1767.960 3414.354 C 1771.104 3451.259, 1778.970 3481.565, 1791.950 3506.790 C 1800.448 3523.305, 1809.170 3532.061, 1824.500 3539.467 C 1835.581 3544.820, 1843.025 3546.714, 1858.500 3548.119 C 1869.414 3549.110, 1878.220 3548.701, 1955.838 3543.604 C 2002.775 3540.522, 2042.037 3538, 2043.088 3538 C 2044.693 3538, 2045 3537.262, 2045 3533.406 C 2045 3530.879, 2038.700 3431.793, 2031 3313.215 C 2023.300 3194.637, 2017 3096.354, 2017 3094.809 C 2017 3091.366, 2016.974 3091.365, 1997 3094.628 M 2542.332 3100.178 L 2530.163 3107.149 2559.737 3151.824 C 2599.997 3212.641, 2599.086 3211.288, 2606.967 3222 C 2610.810 3227.225, 2615.878 3235.017, 2618.228 3239.316 C 2620.577 3243.615, 2623.175 3248.006, 2624 3249.074 C 2625.443 3250.942, 2625.600 3250.949, 2628.144 3249.257 L 2630.788 3247.499 2625.448 3238.499 C 2622.512 3233.550, 2618.314 3225.450, 2616.121 3220.500 C 2613.927 3215.550, 2610.339 3207.450, 2608.146 3202.500 C 2603.159 3191.240, 2556.114 3094.733, 2555.184 3093.854 C 2554.808 3093.498, 2549.024 3096.344, 2542.332 3100.178 M 1614.555 3101.246 C 1613.142 3111.820, 1586 3388.510, 1586 3392.339 C 1586 3402.898, 1592.632 3412.663, 1601.284 3414.841 C 1603.815 3415.479, 1607.486 3416, 1609.443 3416 L 1613 3416 1613 3420.975 C 1613 3425.849, 1612.944 3425.941, 1610.250 3425.481 C 1604.703 3424.534, 1514.791 3415.875, 1514.415 3416.252 C 1513.902 3416.765, 1502.735 3529.097, 1503.167 3529.403 C 1503.855 3529.892, 1746.520 3553.690, 1746.958 3553.312 C 1747.210 3553.094, 1749.936 3527.688, 1753.015 3496.853 C 1756.834 3458.606, 1758.272 3440.658, 1757.540 3440.377 C 1756.950 3440.151, 1741.753 3438.489, 1723.770 3436.685 C 1705.786 3434.881, 1690.884 3433.202, 1690.654 3432.953 C 1690.424 3432.704, 1697.472 3359.727, 1706.316 3270.781 C 1715.160 3181.836, 1722.133 3108.800, 1721.813 3108.479 C 1721.492 3108.158, 1712.515 3107.247, 1701.865 3106.455 C 1674.076 3104.387, 1624.990 3099.175, 1617.312 3097.477 C 1615.388 3097.051, 1615.055 3097.506, 1614.555 3101.246 M 1396.626 3245.750 C 1395.163 3250.781, 1372.919 3364.755, 1371.985 3372 C 1370.729 3381.750, 1366.566 3401.144, 1364.429 3407.201 C 1362.773 3411.894, 1362.725 3411.774, 1366.728 3412.922 L 1369.727 3413.782 1372.918 3401.641 C 1374.672 3394.963, 1378.177 3384.325, 1380.706 3378 C 1385.474 3366.072, 1424 3253.611, 1424 3251.619 C 1424 3250.720, 1400.471 3243.846, 1397.817 3243.968 C 1397.442 3243.986, 1396.906 3244.787, 1396.626 3245.750 M 1896.534 3337.182 C 1883.397 3338.169, 1881.933 3338.830, 1879.381 3344.938 C 1877.488 3349.469, 1875.289 3363.046, 1874.512 3375 C 1872.554 3405.110, 1882.252 3454.318, 1891.073 3459.039 C 1892.601 3459.857, 1898.214 3459.828, 1912.325 3458.931 C 1922.871 3458.261, 1931.624 3457.616, 1931.775 3457.498 C 1932.106 3457.240, 1925.252 3348.746, 1924.431 3341.250 L 1923.856 3336 1916.178 3336.142 C 1911.955 3336.220, 1903.115 3336.688, 1896.534 3337.182" stroke="none" fill="#0c1c24" fill-rule="evenodd"/></svg>